<?xml version="1.0" standalone="no"?>
<!DOCTYPE svg PUBLIC "-//W3C//DTD SVG 20010904//EN"
 "http://www.w3.org/TR/2001/REC-SVG-20010904/DTD/svg10.dtd">
<svg version="1.0" xmlns="http://www.w3.org/2000/svg"
 width="1280.000000pt" height="1119.000000pt" viewBox="0 0 1280.000000 1119.000000"
 preserveAspectRatio="xMidYMid meet">
<g transform="translate(0.000000,1119.000000) scale(0.100000,-0.100000)"
fill="#000000" stroke="none">
<path d="M5893 11049 c-76 -24 -174 -89 -224 -149 -21 -25 -567 -958 -1215
-2075 -3186 -5497 -4383 -7563 -4396 -7590 -22 -43 -58 -179 -58 -218 1 -49
44 -190 75 -244 42 -71 128 -157 194 -192 97 -51 152 -60 410 -67 408 -9
10892 -22 10959 -13 76 11 147 40 223 90 75 50 124 108 167 197 59 124 57 293
-7 428 -36 76 -5169 8998 -5389 9367 -91 153 -183 298 -204 322 -53 60 -147
121 -225 145 -87 27 -224 26 -310 -1z"/>
</g>
</svg>
